<?xml version="1.0" encoding="utf-8"?>
<!-- Generator: Adobe Illustrator 17.0.0, SVG Export Plug-In . SVG Version: 6.00 Build 0)  -->
<!DOCTYPE svg PUBLIC "-//W3C//DTD SVG 1.1//EN" "http://www.w3.org/Graphics/SVG/1.1/DTD/svg11.dtd">
<svg version="1.1" id="Layer_1" xmlns="http://www.w3.org/2000/svg" xmlns:xlink="http://www.w3.org/1999/xlink" x="0px" y="0px"
	 width="422.601px" height="362.089px" viewBox="0 0 422.601 362.089" enable-background="new 0 0 422.601 362.089"
	 xml:space="preserve">
<g>
	<defs>
		<rect id="SVGID_1_" width="422.601" height="362.089"/>
	</defs>
	<clipPath id="SVGID_2_">
		<use xlink:href="#SVGID_1_"  overflow="visible"/>
	</clipPath>
	<path clip-path="url(#SVGID_2_)" fill="#537DA7" d="M343.981,82.72c-0.433-0.848-10.83-21.004-32.327-41.356
		C291.723,22.494,258.133,0,211.3,0s-80.422,22.494-100.354,41.364C89.45,61.716,79.053,81.872,78.62,82.72
		c-0.767,1.508-0.761,3.294,0.018,4.796c0.44,0.847,11.016,20.988,32.597,41.329c28.703,27.055,63.305,41.356,100.065,41.356
		c36.761,0,71.362-14.301,100.066-41.356c21.58-20.341,32.157-40.482,32.597-41.329C344.742,86.014,344.748,84.228,343.981,82.72
		 M211.3,64.939c11.135,0,20.162,9.027,20.162,20.162c0,11.135-9.027,20.162-20.162,20.162c-11.135,0-20.161-9.027-20.161-20.162
		C191.139,73.966,200.165,64.939,211.3,64.939 M211.3,159.713c-34.406,0-65.565-12.871-92.612-38.257
		c-16.086-15.097-25.859-30.383-29.316-36.255c10.822-4.799,36.269-14.163,77.595-18.408c-2.333,5.642-3.627,11.823-3.627,18.308
		c0,26.488,21.473,47.96,47.96,47.96c26.488,0,47.961-21.472,47.961-47.96c0-6.485-1.294-12.666-3.627-18.308
		c41.323,4.245,66.77,13.608,77.593,18.407C325.389,98.467,285.179,159.713,211.3,159.713"/>
	<path clip-path="url(#SVGID_2_)" fill="#537DA7" d="M133.184,362.089h-10.488v-65.485c0-4.633-3.77-8.403-8.403-8.403H18.89
		c-4.633,0-8.401,3.77-8.401,8.403v65.485H0v-65.485c0-10.416,8.474-18.891,18.89-18.891h95.403
		c10.416,0,18.891,8.475,18.891,18.891V362.089z"/>
	<path clip-path="url(#SVGID_2_)" fill="#537DA7" d="M92.008,223.789c0,7.736-6.271,14.007-14.007,14.007
		c-7.735,0-14.006-6.271-14.006-14.007c0-7.736,6.271-14.007,14.006-14.007C85.737,209.783,92.008,216.053,92.008,223.789"/>
	<path clip-path="url(#SVGID_2_)" fill="#537DA7" d="M111.697,267.113H68.568c0-7.302,6.262-24.657,18.429-24.657
		S111.697,267.113,111.697,267.113"/>
	<rect x="33.969" y="208.478" clip-path="url(#SVGID_2_)" fill="#537DA7" width="10.488" height="58.635"/>
	<path clip-path="url(#SVGID_2_)" fill="#537DA7" d="M277.893,362.089h-10.488v-65.485c0-4.633-3.77-8.403-8.403-8.403h-95.403
		c-4.633,0-8.402,3.77-8.402,8.403v65.485h-10.489v-65.485c0-10.416,8.475-18.891,18.891-18.891h95.403
		c10.416,0,18.891,8.475,18.891,18.891V362.089z"/>
	<path clip-path="url(#SVGID_2_)" fill="#537DA7" d="M236.717,223.789c0,7.736-6.271,14.007-14.007,14.007
		c-7.735,0-14.006-6.271-14.006-14.007c0-7.736,6.271-14.007,14.006-14.007C230.446,209.783,236.717,216.053,236.717,223.789"/>
	<path clip-path="url(#SVGID_2_)" fill="#537DA7" d="M256.406,267.113h-43.129c0-7.302,6.262-24.657,18.429-24.657
		C243.873,242.456,256.406,267.113,256.406,267.113"/>
	<rect x="178.678" y="208.478" clip-path="url(#SVGID_2_)" fill="#537DA7" width="10.488" height="58.635"/>
	<path clip-path="url(#SVGID_2_)" fill="#537DA7" d="M422.601,362.089h-10.488v-65.485c0-4.633-3.77-8.403-8.403-8.403h-95.402
		c-4.633,0-8.402,3.77-8.402,8.403v65.485h-10.489v-65.485c0-10.416,8.475-18.891,18.891-18.891h95.402
		c10.416,0,18.891,8.475,18.891,18.891V362.089z"/>
	<path clip-path="url(#SVGID_2_)" fill="#537DA7" d="M381.426,223.789c0,7.736-6.271,14.007-14.007,14.007
		c-7.735,0-14.006-6.271-14.006-14.007c0-7.736,6.271-14.007,14.006-14.007C375.155,209.783,381.426,216.053,381.426,223.789"/>
	<path clip-path="url(#SVGID_2_)" fill="#537DA7" d="M401.114,267.113h-43.129c0-7.302,6.262-24.657,18.429-24.657
		S401.114,267.113,401.114,267.113"/>
	<rect x="323.386" y="208.478" clip-path="url(#SVGID_2_)" fill="#537DA7" width="10.488" height="58.635"/>
</g>
</svg>
