<?xml version="1.0" encoding="utf-8"?>
<!-- Generator: Adobe Illustrator 17.0.0, SVG Export Plug-In . SVG Version: 6.00 Build 0)  -->
<!DOCTYPE svg PUBLIC "-//W3C//DTD SVG 1.1//EN" "http://www.w3.org/Graphics/SVG/1.1/DTD/svg11.dtd">
<svg version="1.1" id="Layer_1" xmlns="http://www.w3.org/2000/svg" xmlns:xlink="http://www.w3.org/1999/xlink" x="0px" y="0px"
	 width="417.004px" height="357.368px" viewBox="0 0 417.004 357.368" enable-background="new 0 0 417.004 357.368"
	 xml:space="preserve">
<g>
	<defs>
		<rect id="SVGID_1_" width="417.004" height="357.368"/>
	</defs>
	<clipPath id="SVGID_2_">
		<use xlink:href="#SVGID_1_"  overflow="visible"/>
	</clipPath>
	<path clip-path="url(#SVGID_2_)" fill="#537DA7" d="M261.986,107.371h-20.64V86.73h20.64V107.371z M266.082,76.242H237.25
		c-3.531,0-6.392,2.862-6.392,6.393v28.831c0,3.531,2.861,6.393,6.392,6.393h28.832c3.531,0,6.393-2.862,6.393-6.393V82.635
		C272.475,79.104,269.613,76.242,266.082,76.242"/>
	<path clip-path="url(#SVGID_2_)" fill="#537DA7" d="M175.599,330.569H87.52c-3.36,0-6.08-2.88-6.08-6.08c0-3.2,2.88-6.08,6.08-6.08
		h88.079v-10.56H87.52c-9.12,0-16.64,7.52-16.64,16.64s7.52,16.64,16.64,16.64h88.079V330.569z"/>
	<polygon clip-path="url(#SVGID_2_)" fill="#537DA7" points="175.599,280.889 99.68,280.889 99.68,312.009 110.24,312.009 
		110.24,291.449 175.599,291.449 	"/>
	<path clip-path="url(#SVGID_2_)" fill="#537DA7" d="M175.599,258.889H20.96c-5.76,0-10.56-4.64-10.56-10.56V59.209
		c0-5.76,4.64-10.56,10.56-10.56h154.639v-10.4H20.96C9.44,38.249,0,47.689,0,59.209v189.12c0,11.52,9.44,20.96,20.96,20.96h154.639
		V258.889z"/>
	<path clip-path="url(#SVGID_2_)" fill="#537DA7" d="M234.772,6.169h-27.848c-11.52,0-20.96,9.44-20.96,20.96v154.639h10.4V27.129
		c0-5.76,4.64-10.56,10.56-10.56h27.848V6.169z"/>
	<path clip-path="url(#SVGID_2_)" fill="#537DA7" d="M396.044,6.169h-27.919v10.4h27.919c5.76,0,10.56,4.64,10.56,10.56v154.639
		h10.4V27.129C417.004,15.609,407.564,6.169,396.044,6.169"/>
	<path clip-path="url(#SVGID_2_)" fill="#537DA7" d="M196.364,181.769v154.639c0,5.76,4.64,10.56,10.56,10.56h189.12
		c5.76,0,10.56-4.64,10.56-10.56V181.769h10.4v154.639c0,11.52-9.44,20.96-20.96,20.96h-189.12c-11.52,0-20.96-9.44-20.96-20.96
		V181.769H196.364z"/>
	<path clip-path="url(#SVGID_2_)" fill="#537DA7" d="M103.677,216.895c-32.797,0-40.036-25.042-40.036-56.593
		c0-34.445-18.363-53.554-42.042-60.245v142.445c0,2.831,2.296,5.126,5.127,5.126H168v-71.8
		C150.29,175.828,133.276,216.895,103.677,216.895"/>
	<rect x="295.03" y="80.899" clip-path="url(#SVGID_2_)" fill="#537DA7" width="86.816" height="10.488"/>
	<rect x="295.029" y="102.714" clip-path="url(#SVGID_2_)" fill="#537DA7" width="56.535" height="10.488"/>
	<path clip-path="url(#SVGID_2_)" fill="#537DA7" d="M261.986,166.371h-20.64V145.73h20.64V166.371z M266.082,135.242H237.25
		c-3.531,0-6.392,2.862-6.392,6.393v28.831c0,3.531,2.861,6.393,6.392,6.393h28.832c3.531,0,6.393-2.862,6.393-6.393v-28.831
		C272.475,138.104,269.613,135.242,266.082,135.242"/>
	<rect x="295.03" y="139.899" clip-path="url(#SVGID_2_)" fill="#537DA7" width="86.816" height="10.488"/>
	<rect x="295.03" y="161.714" clip-path="url(#SVGID_2_)" fill="#537DA7" width="86.816" height="10.488"/>
	<path clip-path="url(#SVGID_2_)" fill="#537DA7" d="M261.986,225.371h-20.64V204.73h20.64V225.371z M266.082,194.242H237.25
		c-3.531,0-6.392,2.862-6.392,6.392v28.832c0,3.531,2.861,6.393,6.392,6.393h28.832c3.531,0,6.393-2.862,6.393-6.393v-28.832
		C272.475,197.104,269.613,194.242,266.082,194.242"/>
	<rect x="295.03" y="198.899" clip-path="url(#SVGID_2_)" fill="#537DA7" width="86.816" height="10.488"/>
	<rect x="295.029" y="220.714" clip-path="url(#SVGID_2_)" fill="#537DA7" width="43.408" height="10.488"/>
	<path clip-path="url(#SVGID_2_)" fill="#537DA7" d="M261.986,284.371h-20.64V263.73h20.64V284.371z M266.082,253.242H237.25
		c-3.531,0-6.392,2.862-6.392,6.392v28.832c0,3.531,2.861,6.393,6.392,6.393h28.832c3.531,0,6.393-2.862,6.393-6.393v-28.832
		C272.475,256.104,269.613,253.242,266.082,253.242"/>
	<rect x="295.029" y="257.899" clip-path="url(#SVGID_2_)" fill="#537DA7" width="68.045" height="10.488"/>
	<rect x="295.03" y="279.714" clip-path="url(#SVGID_2_)" fill="#537DA7" width="86.816" height="10.488"/>
	<path clip-path="url(#SVGID_2_)" fill="#537DA7" d="M349.238,0.001H294.43h-6.873h-35.043c-5.994,0-11.388,5.394-11.388,11.389
		c0,5.994,5.095,11.389,11.388,11.389h35.043h6.873h54.808c6.294,0,11.389-5.395,11.389-11.389
		C360.627,5.395,355.232,0.001,349.238,0.001 M267.115,16.749c-2.96,0-5.359-2.399-5.359-5.359c0-2.96,2.399-5.36,5.359-5.36
		c2.96,0,5.359,2.4,5.359,5.36C272.474,14.35,270.075,16.749,267.115,16.749 M331.713,16.749c-2.96,0-5.359-2.399-5.359-5.359
		c0-2.96,2.399-5.36,5.359-5.36c2.96,0,5.359,2.4,5.359,5.36C337.072,14.35,334.673,16.749,331.713,16.749"/>
</g>
</svg>
