<?xml version="1.0" encoding="utf-8"?>
<!-- Generator: Adobe Illustrator 17.0.0, SVG Export Plug-In . SVG Version: 6.00 Build 0)  -->
<!DOCTYPE svg PUBLIC "-//W3C//DTD SVG 1.1//EN" "http://www.w3.org/Graphics/SVG/1.1/DTD/svg11.dtd">
<svg version="1.1" id="Layer_1" xmlns="http://www.w3.org/2000/svg" xmlns:xlink="http://www.w3.org/1999/xlink" x="0px" y="0px"
	 width="336px" height="318.88px" viewBox="0 0 336 318.88" enable-background="new 0 0 336 318.88" xml:space="preserve">
<g>
	<defs>
		<rect id="SVGID_1_" width="336" height="318.88"/>
	</defs>
	<clipPath id="SVGID_2_">
		<use xlink:href="#SVGID_1_"  overflow="visible"/>
	</clipPath>
	<path clip-path="url(#SVGID_2_)" fill="#537DA7" d="M248.48,285.6H87.52c-9.12,0-16.64,7.52-16.64,16.64
		c0,9.12,7.52,16.64,16.64,16.64h160.96c9.12,0,16.64-7.52,16.64-16.64C265.12,293.12,257.6,285.6,248.48,285.6 M248.48,296.16
		c3.36,0,6.08,2.88,6.08,6.08c0,3.2-2.88,6.08-6.08,6.08H87.52c-3.36,0-6.08-2.88-6.08-6.08c0-3.2,2.88-6.08,6.08-6.08H248.48"/>
	<polygon clip-path="url(#SVGID_2_)" fill="#537DA7" points="110.24,289.76 99.68,289.76 99.68,248.64 236.32,248.64 236.32,285.6 
		225.76,285.6 225.76,259.2 110.24,259.2 	"/>
	<path clip-path="url(#SVGID_2_)" fill="#537DA7" d="M315.04,0H20.96C9.44,0,0,9.44,0,20.96v189.12c0,11.52,9.44,20.96,20.96,20.96
		h294.08c11.52,0,20.96-9.44,20.96-20.96V20.96C336,9.44,326.56,0,315.04,0 M315.04,10.56c5.76,0,10.56,4.64,10.56,10.56v188.96
		c0,5.76-4.64,10.56-10.56,10.56H20.96c-5.76,0-10.56-4.64-10.56-10.56V20.96c0-5.76,4.64-10.56,10.56-10.56h294.08"/>
	<rect x="269.6" y="132.16" clip-path="url(#SVGID_2_)" fill="#537DA7" width="10.56" height="62.08"/>
	<rect x="240.8" y="100.64" clip-path="url(#SVGID_2_)" fill="#537DA7" width="10.56" height="93.6"/>
	<rect x="212" y="69.28" clip-path="url(#SVGID_2_)" fill="#537DA7" width="10.56" height="124.96"/>
	<rect x="183.2" y="37.76" clip-path="url(#SVGID_2_)" fill="#537DA7" width="10.56" height="156.48"/>
	<path clip-path="url(#SVGID_2_)" fill="#537DA7" d="M119.36,91.52c0,11.576-9.384,20.96-20.96,20.96s-20.96-9.384-20.96-20.96
		c0-11.576,9.384-20.96,20.96-20.96S119.36,79.944,119.36,91.52"/>
	<path clip-path="url(#SVGID_2_)" fill="#537DA7" d="M97.44,161.28l-20.32-44c0,0-21.28,0.32-21.28,19.84v24.16H97.44z"/>
	<path clip-path="url(#SVGID_2_)" fill="#537DA7" d="M99.36,161.28l20.32-44c0,0,21.28,0.32,21.28,19.84v24.16H99.36z"/>
	<polygon clip-path="url(#SVGID_2_)" fill="#537DA7" points="98.4,117.28 83.84,117.28 98.4,149.6 113.12,117.28 	"/>
</g>
</svg>
