<?xml version="1.0" encoding="utf-8"?>
<!-- Generator: Adobe Illustrator 17.0.0, SVG Export Plug-In . SVG Version: 6.00 Build 0)  -->
<!DOCTYPE svg PUBLIC "-//W3C//DTD SVG 1.1//EN" "http://www.w3.org/Graphics/SVG/1.1/DTD/svg11.dtd">
<svg version="1.1" id="Layer_1" xmlns="http://www.w3.org/2000/svg" xmlns:xlink="http://www.w3.org/1999/xlink" x="0px" y="0px"
	 width="103.641px" height="43.268px" viewBox="0 0 103.641 43.268" enable-background="new 0 0 103.641 43.268"
	 xml:space="preserve">
<polygon fill="#537DA7" points="94.96,10.36 91.869,15.141 89.199,10.36 80.93,10.36 87.851,20.701 78.819,32.901 87.01,32.901 
	91.77,26.26 95.53,32.901 103.64,32.901 95.8,20.731 103.26,10.36 "/>
<path d="M70.88,10.36h6.771H70.88z"/>
<g>
	<defs>
		<rect id="SVGID_1_" y="0" width="103.641" height="43.268"/>
	</defs>
	<clipPath id="SVGID_2_">
		<use xlink:href="#SVGID_1_"  overflow="visible"/>
	</clipPath>
	<path clip-path="url(#SVGID_2_)" fill="#537DA7" d="M74.271,34.799c2.34,0,4.238,1.891,4.238,4.23c0,2.34-1.9,4.239-4.238,4.239
		c-2.342,0-4.24-1.9-4.24-4.239C70.029,36.69,71.929,34.799,74.271,34.799"/>
	<path clip-path="url(#SVGID_2_)" fill="#537DA7" d="M62.499,23.921L69.39,32.9h-8.52l-4.3-6.729V32.9h-6.76V10.36h8.86
		c2.63,0,4.76,0.74,6.159,2.14c1.25,1.25,1.881,2.94,1.881,5.04C66.71,20.64,65.079,23.04,62.499,23.921 M60.659,17.88
		c0-0.76-0.199-1.32-0.601-1.73c-0.799-0.8-2.339-0.91-3.488-0.92v5.31C59.46,20.51,60.659,19.74,60.659,17.88"/>
	<polygon clip-path="url(#SVGID_2_)" fill="#537DA7" points="47.979,10.36 47.979,16.25 42.838,16.25 42.838,32.9 36.109,32.9 
		36.109,16.25 30.969,16.25 30.969,10.36 	"/>
	<polygon clip-path="url(#SVGID_2_)" fill="#537DA7" points="29.148,10.36 29.148,32.9 22.389,32.9 22.389,29.81 22.389,13.47 
		22.389,10.36 	"/>
	<path clip-path="url(#SVGID_2_)" fill="#537DA7" d="M25.771,0c2.34,0,4.238,1.9,4.238,4.23c0,2.34-1.899,4.25-4.238,4.25
		c-2.351,0-4.24-1.91-4.24-4.25C21.529,1.9,23.418,0,25.771,0"/>
	<path clip-path="url(#SVGID_2_)" fill="#537DA7" d="M20.33,13.47l-3.56,5.75c-1-1.66-2.971-2.73-4.96-2.73
		c-2.841,0-4.919,2.31-4.919,5.15s2.078,5.142,4.919,5.142c1.989,0,3.96-1.071,4.96-2.731l3.56,5.76
		c-2.15,2.24-5.17,3.631-8.52,3.631C5.29,33.442,0,28.163,0,21.641c0-6.52,5.29-11.82,11.81-11.82
		C15.16,9.82,18.18,11.22,20.33,13.47"/>
	<polygon clip-path="url(#SVGID_2_)" fill="#537DA7" points="77.648,10.359 77.648,32.899 70.889,32.899 70.889,29.811 
		70.889,13.47 70.889,10.359 	"/>
</g>
</svg>
