<?xml version="1.0" encoding="utf-8"?>
<!-- Generator: Adobe Illustrator 17.0.0, SVG Export Plug-In . SVG Version: 6.00 Build 0)  -->
<!DOCTYPE svg PUBLIC "-//W3C//DTD SVG 1.1//EN" "http://www.w3.org/Graphics/SVG/1.1/DTD/svg11.dtd">
<svg version="1.1" id="Layer_1" xmlns="http://www.w3.org/2000/svg" xmlns:xlink="http://www.w3.org/1999/xlink" x="0px" y="0px"
	 width="37.735px" height="44.377px" viewBox="0 0 37.735 44.377" enable-background="new 0 0 37.735 44.377" xml:space="preserve">
<g>
	<defs>
		<rect id="SVGID_1_" y="0" width="37.735" height="44.377"/>
	</defs>
	<clipPath id="SVGID_2_">
		<use xlink:href="#SVGID_1_"  overflow="visible"/>
	</clipPath>
	<path clip-path="url(#SVGID_2_)" fill-rule="evenodd" clip-rule="evenodd" fill="#537DA7" d="M13.102,37.783
		c1.587-0.164,1.797-1.844,1.049-2.578c-0.616-0.604-4.015-3.127-4.902-4.119c-0.412-0.461-0.97-0.687-1.206-1.204
		c-0.543-1.19-0.924-2.889-0.235-4.109c0.125-0.221,0.205-0.122,0.11,0.338c-0.542,2.603,1.153,4.729,1.526,3.639
		c0.258-0.754,0.019-2.101,0.157-3.172c0.244-1.894,1.968-5.531,2.725-5.738c-1.168-2.164,1.37-3.857,1.339-5.756
		c-0.021-1.235,1.084,1.518,2.195,2.102c1.24,0.652,2.603-1.228,4.537-2.182c0.548-0.27,1.25-0.58,1.203-0.811
		c-0.228-1.11-2.542,1.37-4.608,1.453c-0.944,0.038-1.294-0.185-1.658-0.537c-1.101-1.064,0.112-0.176,1.75-0.472
		c0.728-0.132,0.972-0.253,1.745-0.565c0.772-0.312,1.655-0.774,2.528-1.012c0.609-0.165,0.558-0.622,0.322-0.759
		c-0.137-0.079-0.338-0.072-0.499,0.205c-0.375,0.648-2.138,1.023-2.688,1.191c-0.707,0.216-1.488,0.418-2.527,0.376
		c-1.577-0.064-1.21-0.787-2.338-1.434c-0.331-0.19-0.241-0.688,0.198-1.128c0.23-0.23,0.862-0.36,1.175-0.885
		c0.044-0.073,0.447-0.495,0.764-0.714c0.109-0.075,0.118-2.001-0.87-2.041c-0.84-0.034-1.078,0.617-1.043,1.265
		c0.035,0.649,0.379,1.183,0.607,1.181c0.441-0.005,0.028,0.482-0.213,0.56c-0.367,0.12-0.869-1.443-0.811-2.193
		c0.06-0.782,0.467-2.166,1.456-2.139c0.891,0.024,1.537,1.141,1.504,3.067c-0.006,0.327,1.444-0.156,1.928,0.356
		c0.346,0.365-1.185-3.413,2.225-3.674c0.899,0.172,1.762,0.471,2.12,2.537c-0.132,0.215,0.224,1.656-0.331,1.827
		c-0.676,0.209-1.094-0.03-0.703-0.675c0.268-0.647,0.006-2.294-1.364-2.195c-1.369,0.099-1.188,2.53-0.812,2.578
		c0.375,0.048,1.321,0.719,1.981,0.847c2.167,0.422,0.575,1.664,0.857,3.168c0.317,1.699,1.436,1.25,2.441,5.747
		c0.21,0.274,1.043,0.533,1.855,3.988c0.729,3.109-0.304,5.37,1.451,5.184c0.395-0.042,0.973-0.153,1.224-1.033
		c0.657-2.302-0.329-5.046-1.324-6.897c-0.58-1.079-1.126-1.814-1.414-2.067c1.141,0.675,2.599,2.828,2.935,4.427
		c0.442,2.1,0.758,2.989,0.089,5.21c0.386,0.193,1.347,0.601,1.347,1.059c-1.001-0.822-4.063-0.968-4.142,0.998
		c-0.522,0.01-0.917,0.053-1.254,0.452c-1.231,1.461-0.088,4.395-0.212,5.969c-0.11,1.384-0.494,2.756-0.711,4.147
		c-0.733-0.028-0.661-0.565-0.426-1.317c0.207-0.664,0.542-1.496,0.564-2.294c0.02-0.722-0.059-1.173-0.241-1.286
		c-0.182-0.112-0.468,0.116-0.861,0.75c-0.841,1.355-2.663,1.95-4.364,2.163c-1.701,0.213-3.282,0.044-4.119-0.894
		c-0.287-0.32-0.761,0.088-0.818,0.173c-0.075,0.114,0.277,0.336,0.543,0.823c0.388,0.713,0.758,1.794-0.162,2.287
		C14.707,39.462,13.913,39.316,13.102,37.783 M12.494,37.717c0.609,0.959,2.757,4.999-1.008,5.523
		c-1.259,0.176-3.287-0.732-5.251-1.213c-1.765-0.432-3.557-0.687-4.561-0.969c-0.604-0.17-0.856-0.387-0.908-0.64
		c-0.14-0.67,0.733-1.611,0.777-2.404c0.044-0.794-0.29-1.207-0.563-1.855c-0.274-0.649-0.345-1.135-0.126-1.414
		c0.171-0.216,0.517-0.307,1.08-0.252c0.714,0.071,1.577-0.076,2.04-0.358c0.781-0.477,1.148-1.452,0.797-2.628
		c0,1.151-0.377,1.586-1.323,2.112c-0.891,0.496-2.267,0.095-2.899,0.644c-0.761,0.66,0.271,2.364,0.187,3.616
		c-0.065,0.961-1.068,2.044-0.621,3.008c0.45,0.97,2.549,1.076,4.737,1.533c3.111,0.651,4.925,1.784,6.362,1.837
		c2.097,0.078,2.418-2.074,5.71-2.103c0.96-0.051,1.899-0.081,2.837-0.093c1.063-0.013,2.125-0.004,3.216,0.022
		c2.19,0.053,1.437,1.196,2.858,1.927c1.2,0.616,3.356,0.373,3.872-0.119c0.698-0.666,2.572-2.268,4.008-2.991
		c1.79-0.902,5.993-2.455,2.941-4.348c-0.711-0.441-2.392-0.908-2.534-4.135c-0.636,0.565-0.563,3.573,1.214,4.169
		c1.985,0.667,3.224,1.783-0.465,3.045c-2.442,0.835-2.858,1.092-4.791,2.702c-1.957,1.629-4.86,0.982-4.353-2.447
		c0.264-1.787,0.416-3.263-0.029-4.816c-0.217-0.758-0.325-1.731-0.176-2.414c0.288-1.327,1.006-1.726,1.711-0.452
		c0.441,0.799,0.596,1.734,2.178,1.81c2.486,0.119,2.978-2.402,3.773-2.517c0.53-0.076,1.059-1.576,0.656-4.002
		c-0.433-2.597-1.961-6.697-3.921-8.777c-1.628-1.728-2.655-3.244-3.3-5.407c-0.543-1.817-0.846-3.586-0.734-5.276
		c0.145-2.191-1.07-5.24-3.005-6.675C21.67,0.462,19.771-0.019,18.052,0c-0.964,0.011-1.871,0.152-2.568,0.53
		c-2.869,1.557-3.269,3.782-3.226,6.321c0.04,2.385,0.121,5.107,0.392,7.696c-0.321,1.189-1.991,3.442-3.06,4.814
		c-1.438,1.42-2.164,4.165-3.095,6.564c-0.496,1.278-1.332,1.856-1.402,3.5c-0.02,0.459-0.004,1.649,0.435,1.309
		C7.21,29.433,9.315,32.712,12.494,37.717 M21.222,3.339c-0.09,0.271-0.463,0.496-0.226,0.686c0.237,0.19,0.372-0.265,0.849-0.436
		c0.123-0.044,0.696,0.019,0.802-0.254c0.046-0.118-0.296-0.254-0.499-0.448c-0.203-0.194-0.403-0.367-0.594-0.355
		C21.06,2.563,21.303,3.098,21.222,3.339 M24.145,13.228c0.178-0.186,0.269,0.322,0.747,0.623c0.378,0.239,0.746,0.062,0.842,0.546
		c0.068,0.347-0.148,0.723-0.439,0.674C24.789,14.986,23.62,13.78,24.145,13.228 M16.257,10.176c-0.786-0.058-0.84,0.51-0.58,0.501
		C15.943,10.667,15.78,10.227,16.257,10.176 M14.908,8.724c0.093-0.021,0.225,0.138,0.184,0.36
		c-0.057,0.308-0.032,0.501,0.182,0.502c0.035,0,0.073-0.007,0.086-0.087c0.103-0.614-0.216-1.065-0.347-1.098
		C14.712,8.324,14.749,8.758,14.908,8.724 M20.634,8.464c0.199,0.059,0.391,0.405,0.433,0.778c0.004,0.035,0.261-0.054,0.263-0.135
		c0.016-0.601-0.497-0.883-0.631-0.871C20.39,8.264,20.477,8.417,20.634,8.464 M17.699,10.249c0.715-0.331,0.965,0.183,0.718,0.265
		C18.165,10.599,18.163,10.129,17.699,10.249 M9.06,22.436c-0.338-0.041,0.098-0.295,0.283-0.615
		c0.204-0.351,0.165-0.79,0.378-0.726c0.214,0.065,0.095,0.311-0.051,0.714C9.545,22.152,9.185,22.451,9.06,22.436"/>
</g>
</svg>
