<?xml version="1.0" encoding="utf-8"?>
<!-- Generator: Adobe Illustrator 17.0.0, SVG Export Plug-In . SVG Version: 6.00 Build 0)  -->
<!DOCTYPE svg PUBLIC "-//W3C//DTD SVG 1.1//EN" "http://www.w3.org/Graphics/SVG/1.1/DTD/svg11.dtd">
<svg version="1.1" id="Слой_1" xmlns="http://www.w3.org/2000/svg" xmlns:xlink="http://www.w3.org/1999/xlink" x="0px" y="0px"
	 width="95px" height="52px" viewBox="0 0 95 52" enable-background="new 0 0 95 52" xml:space="preserve">
<g>
	<path fill="#FFFFFF" d="M17.454,9.177c8.087-5.298,17.562-8.433,27.209-9.048c5.082-0.427,10.203,0.047,15.204,0.997
		C67.1,2.575,74.046,5.469,80.166,9.592c2.017,1.397,4.02,2.835,5.807,4.52c-0.116,0.188-0.225,0.375-0.335,0.561
		c-5.408-4.258-11.745-7.235-18.347-9.121C60.598,3.64,53.609,2.825,46.656,2.946c0.584,1.562,1.055,3.195,1.032,4.88
		c0.004,3.327-1.54,6.517-3.849,8.861c-1.87,1.968-4.224,3.4-6.69,4.492c3.136,1.497,6.605,2.317,10.084,2.313
		c6.141-0.032,12.114-2.699,16.528-6.916c2.27-2.096,4.128-4.596,5.711-7.24c0.565,0.234,1.02,0.672,1.229,1.254
		c-3.461,5.878-8.533,11.028-14.949,13.582c-6.085,2.479-13.212,2.163-19.066-0.817c-6.442-3.167-11.306-8.9-14.465-15.25
		c-4.215,1.832-8.226,4.166-11.768,7.1c-0.345,0.304-0.793,0.434-1.223,0.565C11.705,13.265,14.533,11.133,17.454,9.177"/>
	<polygon fill="#FFFFFF" points="0.493,52.029 0.493,30.171 15.157,30.171 15.157,33.869 4.486,33.869 4.486,38.714 14.415,38.714 
		14.415,42.397 4.486,42.397 4.486,48.346 15.535,48.346 15.535,52.029 	"/>
	<polygon fill="#FFFFFF" points="18.975,52.029 18.975,30.171 22.968,30.171 22.968,39.877 31.035,30.171 36.404,30.171 
		28.957,38.684 36.809,52.029 31.642,52.029 26.205,41.771 22.968,45.424 22.968,52.029 	"/>
	<path fill="#FFFFFF" d="M38.886,52.029V30.171h8.405c2.113,0,3.649,0.196,4.607,0.589c0.958,0.393,1.725,1.091,2.3,2.095
		c0.575,1.004,0.863,2.152,0.863,3.444c0,1.64-0.436,2.995-1.308,4.063c-0.873,1.068-2.177,1.742-3.912,2.02
		c0.864,0.557,1.576,1.168,2.138,1.834c0.562,0.666,1.32,1.849,2.273,3.548l2.415,4.264h-4.775l-2.887-4.756
		c-1.025-1.7-1.727-2.771-2.104-3.213c-0.378-0.442-0.778-0.745-1.2-0.91c-0.423-0.164-1.093-0.246-2.01-0.246h-0.809v9.125H38.886z
		 M42.879,39.415h2.954c1.916,0,3.112-0.089,3.588-0.269c0.477-0.179,0.85-0.487,1.119-0.924c0.27-0.437,0.405-0.984,0.405-1.64
		c0-0.735-0.178-1.329-0.533-1.782c-0.355-0.452-0.857-0.738-1.504-0.857c-0.324-0.05-1.295-0.075-2.914-0.075h-3.116V39.415z"/>
	<path fill="#FFFFFF" d="M76.659,52.029h-4.343l-1.727-4.965h-7.905l-1.632,4.965h-4.236l7.703-21.859h4.222L76.659,52.029z
		 M69.307,43.381l-2.725-8.111l-2.671,8.111H69.307z"/>
	<polygon fill="#FFFFFF" points="78.818,52.029 78.818,30.171 82.703,30.171 90.797,44.768 90.797,30.171 94.507,30.171 
		94.507,52.029 90.5,52.029 82.527,37.775 82.527,52.029 	"/>
</g>
</svg>
