<?xml version="1.0" encoding="utf-8"?>
<!-- Generator: Adobe Illustrator 17.0.0, SVG Export Plug-In . SVG Version: 6.00 Build 0)  -->
<!DOCTYPE svg PUBLIC "-//W3C//DTD SVG 1.1//EN" "http://www.w3.org/Graphics/SVG/1.1/DTD/svg11.dtd">
<svg version="1.1" id="Layer_1" xmlns="http://www.w3.org/2000/svg" xmlns:xlink="http://www.w3.org/1999/xlink" x="0px" y="0px"
	 width="47.129px" height="56.321px" viewBox="0 0 47.129 56.321" enable-background="new 0 0 47.129 56.321" xml:space="preserve">
<g>
	<defs>
		<rect id="SVGID_1_" y="0" width="47.129" height="56.321"/>
	</defs>
	<clipPath id="SVGID_2_">
		<use xlink:href="#SVGID_1_"  overflow="visible"/>
	</clipPath>
	<path clip-path="url(#SVGID_2_)" fill="#669BC2" d="M14.886,19.688h8.369c0.412,0,0.755-0.343,0.755-0.755
		c0-0.411-0.343-0.754-0.755-0.754h-8.369c-0.412,0-0.755,0.343-0.755,0.754C14.131,19.345,14.474,19.688,14.886,19.688"/>
	<path clip-path="url(#SVGID_2_)" fill="#669BC2" d="M14.886,14.955h10.702c0.411,0,0.754-0.343,0.754-0.755
		c0-0.411-0.343-0.754-0.754-0.754H14.886c-0.412,0-0.755,0.343-0.755,0.754C14.131,14.612,14.474,14.955,14.886,14.955"/>
	<path clip-path="url(#SVGID_2_)" fill="#669BC2" d="M39.308,37.319H14.886c-0.411,0-0.754,0.343-0.754,0.755
		c0,0.411,0.343,0.754,0.754,0.754h24.422c0.412,0,0.755-0.343,0.755-0.754C40.063,37.662,39.72,37.319,39.308,37.319"/>
	<path clip-path="url(#SVGID_2_)" fill="#669BC2" d="M39.308,46.237H14.886c-0.411,0-0.754,0.343-0.754,0.755
		c0,0.411,0.343,0.754,0.754,0.754h24.422c0.412,0,0.755-0.343,0.755-0.754C40.063,46.58,39.72,46.237,39.308,46.237"/>
	<path clip-path="url(#SVGID_2_)" fill="#669BC2" d="M39.308,41.778H14.886c-0.411,0-0.754,0.343-0.754,0.755
		c0,0.411,0.343,0.754,0.754,0.754h24.422c0.412,0,0.755-0.343,0.755-0.754C40.063,42.121,39.72,41.778,39.308,41.778"/>
	<path clip-path="url(#SVGID_2_)" fill="#669BC2" d="M34.986,33.889c0,0.412,0.343,0.755,0.755,0.755h3.567
		c0.411,0,0.754-0.343,0.754-0.755s-0.343-0.755-0.754-0.755h-3.567C35.329,33.134,34.986,33.477,34.986,33.889"/>
	<path clip-path="url(#SVGID_2_)" fill="#669BC2" d="M15.915,34.986h15.504c1.029,0,1.852-0.823,1.852-1.852v-7.066
		c0-1.029-0.823-1.852-1.852-1.852H15.915c-1.029,0-1.852,0.823-1.852,1.852v7.066C14.132,34.163,14.955,34.986,15.915,34.986
		 M15.641,26.068c0-0.206,0.137-0.343,0.343-0.343h15.504c0.206,0,0.343,0.137,0.343,0.343v7.066c0,0.206-0.137,0.343-0.343,0.343
		H30.39v-2.47h-2.95v2.47h-2.058V27.44h-2.95v6.037h-2.058v-4.253h-2.949v4.253h-1.304c-0.206,0-0.343-0.137-0.343-0.343v-7.066
		H15.641z"/>
	<path clip-path="url(#SVGID_2_)" fill="#669BC2" d="M46.648,19.483L40.2,13.034V5.831C40.2,2.607,37.662,0,34.506,0H5.831
		C2.675,0,0,2.676,0,5.831v38.828c0,3.019,2.538,5.42,5.831,5.42H6.86v0.754c0,3.087,2.538,5.488,5.762,5.488h28.744
		c3.224,0,5.762-2.401,5.762-5.488V20.58C47.06,20.169,46.923,19.826,46.648,19.483 M34.231,11.319l2.95,2.95l4.802,4.802h-4.939
		c-1.578,0-2.881-1.235-2.881-2.744L34.231,11.319z M6.86,12.005v35.124H5.831c-1.372,0-2.881-0.892-2.881-2.47V5.831
		c0-1.509,1.372-2.812,2.881-2.812h28.743c1.51,0,2.676,1.235,2.676,2.812v4.254l-3.293-3.293c-0.069-0.069-0.206-0.137-0.274-0.206
		c-0.275-0.206-0.549-0.274-0.892-0.274H12.554C9.398,6.312,6.86,8.85,6.86,12.005 M44.11,50.902c0,1.441-1.235,2.538-2.813,2.538
		H12.554c-1.578,0-2.744-1.029-2.744-2.538V12.005c0-1.509,1.234-2.744,2.744-2.744h18.728v7.135c0,3.155,2.606,5.694,5.831,5.694
		h6.997V50.902z"/>
</g>
</svg>
