<?xml version="1.0" encoding="utf-8"?>
<!-- Generator: Adobe Illustrator 17.0.0, SVG Export Plug-In . SVG Version: 6.00 Build 0)  -->
<!DOCTYPE svg PUBLIC "-//W3C//DTD SVG 1.1//EN" "http://www.w3.org/Graphics/SVG/1.1/DTD/svg11.dtd">
<svg version="1.1" id="Layer_1" xmlns="http://www.w3.org/2000/svg" xmlns:xlink="http://www.w3.org/1999/xlink" x="0px" y="0px"
	 width="100.863px" height="74.402px" viewBox="0 0 100.863 74.402" enable-background="new 0 0 100.863 74.402"
	 xml:space="preserve">
<g>
	<path id="XMLID_7_" fill="none" stroke="#669AC1" stroke-width="3.4016" stroke-miterlimit="10" d="M85.838,42.557
		c-7.192,3.659-16.02,0.785-19.68-6.407s-0.786-16.02,6.406-19.68c7.192-3.659,16.02-0.786,19.68,6.406S93.03,38.898,85.838,42.557z
		"/>
	<path fill="none" stroke="#669AC1" stroke-width="3.4016" stroke-miterlimit="10" d="M82.109,43.339l9.41,18.494
		c0.921,1.81,3.136,2.531,4.946,1.61l0,0c1.81-0.921,2.531-3.136,1.61-4.946l-9.411-18.495"/>
</g>
<g>
	<path fill="none" stroke="#669AC1" stroke-width="3.4016" stroke-miterlimit="10" d="M79.461,44.147v7.191
		c0,3.327-2.697,6.024-6.024,6.024H8.411c-3.327,0-6.024-2.697-6.024-6.024V8.225c0-3.327,2.697-6.024,6.024-6.024h65.025
		c3.327,0,6.024,2.697,6.024,6.024v6.656"/>
	<polyline fill="none" stroke="#669AC1" stroke-width="3.4016" stroke-miterlimit="10" points="10.606,14.01 10.606,49.381 
		57.668,49.381 	"/>
	<path fill="none" stroke="#669AC1" stroke-width="3.4016" stroke-miterlimit="10" d="M19.103,40.002
		C33.962-4.314,44.25,60.554,57.668,14.01"/>
</g>
<line fill="none" stroke="#669AC1" stroke-width="3.4016" stroke-miterlimit="10" x1="25.079" y1="72.201" x2="57.089" y2="72.201"/>
<line fill="none" stroke="#669AC1" stroke-width="3.4016" stroke-miterlimit="10" x1="33.847" y1="57.363" x2="30.844" y2="72.201"/>
<line fill="none" stroke="#669AC1" stroke-width="3.4016" stroke-miterlimit="10" x1="51.004" y1="72.201" x2="48.001" y2="57.363"/>
</svg>
