<?xml version="1.0" encoding="utf-8"?>
<!-- Generator: Adobe Illustrator 17.0.0, SVG Export Plug-In . SVG Version: 6.00 Build 0)  -->
<!DOCTYPE svg PUBLIC "-//W3C//DTD SVG 1.1//EN" "http://www.w3.org/Graphics/SVG/1.1/DTD/svg11.dtd">
<svg version="1.1" id="Layer_1" xmlns="http://www.w3.org/2000/svg" xmlns:xlink="http://www.w3.org/1999/xlink" x="0px" y="0px"
	 width="72.267px" height="72.227px" viewBox="0 0 72.267 72.227" enable-background="new 0 0 72.267 72.227" xml:space="preserve">
<g>
	<defs>
		<rect id="SVGID_1_" y="0" width="72.267" height="72.227"/>
	</defs>
	<clipPath id="SVGID_2_">
		<use xlink:href="#SVGID_1_"  overflow="visible"/>
	</clipPath>
	<path clip-path="url(#SVGID_2_)" fill="#669BC2" d="M57.022,50.133V24.906c0-9.159-5.945-17.193-14.622-19.925
		C41.757,2.089,39.187,0,36.133,0s-5.624,2.089-6.266,4.981c-8.677,2.732-14.623,10.766-14.623,19.925v25.227L7.451,62.586
		c-0.321,0.482-0.321,1.125-0.08,1.607c0.241,0.482,0.803,0.803,1.366,0.803h17.996c1.045,4.178,4.821,7.231,9.32,7.231
		s8.275-3.053,9.319-7.231h18.077c0.563,0,1.125-0.321,1.366-0.803c0.241-0.482,0.241-1.125-0.08-1.607L57.022,50.133z
		 M31.715,7.793c0.723-0.161,1.205-0.803,1.205-1.527C33,4.579,34.367,3.213,36.133,3.213c1.768,0,3.133,1.366,3.214,3.053
		c0,0.724,0.482,1.286,1.205,1.527c7.793,2.008,13.256,8.998,13.256,17.113v24.102h-35.35V24.906
		C18.458,16.791,23.922,9.801,31.715,7.793 M36.133,69.094c-2.731,0-4.981-1.607-5.945-4.017h11.89
		C41.114,67.487,38.865,69.094,36.133,69.094 M11.709,61.863l6.026-9.641h36.796l6.026,9.641H11.709z M21.673,24.906
		c0-6.508,4.418-12.293,10.685-13.98c0.884-0.241,1.768,0.241,1.928,1.125c0.241,0.884-0.241,1.768-1.124,1.928
		c-4.821,1.366-8.276,5.865-8.276,10.927c0,0.883-0.723,1.607-1.606,1.607C22.396,26.513,21.673,25.789,21.673,24.906 M5.685,48.767
		c0.321,0.804-0.081,1.768-0.884,2.089c-0.161,0.08-0.402,0.161-0.643,0.161c-0.643,0-1.205-0.402-1.446-0.964
		c-3.615-8.758-3.615-18.881,0-27.718c0.321-0.804,1.286-1.205,2.089-0.884c0.803,0.321,1.205,1.285,0.884,2.089
		C2.39,31.574,2.39,40.733,5.685,48.767 M69.555,49.972c-0.241,0.643-0.883,0.964-1.446,0.964c-0.241,0-0.402,0-0.643-0.16
		c-0.803-0.322-1.205-1.286-0.883-2.089c3.294-8.034,3.294-17.193,0-25.227c-0.322-0.804,0.08-1.768,0.883-2.089
		c0.804-0.322,1.768,0.08,2.089,0.883C73.171,31.092,73.171,41.215,69.555,49.972 M8.657,47.562
		c-2.972-7.15-2.972-15.426-0.08-22.576c0.321-0.803,1.285-1.205,2.089-0.884c0.803,0.322,1.205,1.286,0.884,2.089
		c-2.571,6.427-2.571,13.739,0.08,20.166c0.321,0.803-0.08,1.767-0.884,2.089c-0.16,0.08-0.401,0.16-0.643,0.16
		C9.541,48.526,8.897,48.124,8.657,47.562 M63.611,24.745c2.973,7.15,2.973,15.345,0.08,22.576
		c-0.241,0.643-0.883,0.964-1.526,0.964c-0.161,0-0.402,0-0.643-0.08c-0.803-0.322-1.205-1.286-0.884-2.089
		c2.571-6.427,2.571-13.739-0.08-20.166c-0.321-0.803,0.08-1.767,0.884-2.089C62.325,23.54,63.289,23.942,63.611,24.745"/>
</g>
</svg>
