<?xml version="1.0" encoding="utf-8"?>
<!-- Generator: Adobe Illustrator 17.0.0, SVG Export Plug-In . SVG Version: 6.00 Build 0)  -->
<!DOCTYPE svg PUBLIC "-//W3C//DTD SVG 1.1//EN" "http://www.w3.org/Graphics/SVG/1.1/DTD/svg11.dtd">
<svg version="1.1" id="Layer_1" xmlns="http://www.w3.org/2000/svg" xmlns:xlink="http://www.w3.org/1999/xlink" x="0px" y="0px"
	 width="62.786px" height="41.479px" viewBox="0 0 62.786 41.479" enable-background="new 0 0 62.786 41.479" xml:space="preserve">
<g>
	<defs>
		<rect id="SVGID_1_" y="0" width="62.785" height="41.479"/>
	</defs>
	<clipPath id="SVGID_2_">
		<use xlink:href="#SVGID_1_"  overflow="visible"/>
	</clipPath>
	<path clip-path="url(#SVGID_2_)" fill="#669BC2" d="M31.392,8.414c-6.807,0-12.326,5.518-12.326,12.325
		c0,6.808,5.519,12.326,12.326,12.326c6.808,0,12.326-5.518,12.326-12.326C43.718,13.932,38.2,8.414,31.392,8.414 M35.615,21.961
		c-2.795,0-5.06-2.266-5.06-5.061c0-2.794,2.265-5.06,5.06-5.06c2.795,0,5.061,2.266,5.061,5.06
		C40.676,19.695,38.41,21.961,35.615,21.961"/>
	<path clip-path="url(#SVGID_2_)" fill="none" stroke="#669BC2" stroke-width="3.402" stroke-miterlimit="10" d="M60.72,20.74
		c0,0-13.13,19.039-29.327,19.039c-16.196,0-29.326-19.039-29.326-19.039S15.197,1.701,31.393,1.701
		C47.59,1.701,60.72,20.74,60.72,20.74z"/>
</g>
</svg>
