<?xml version="1.0" encoding="utf-8"?>
<!-- Generator: Adobe Illustrator 17.0.0, SVG Export Plug-In . SVG Version: 6.00 Build 0)  -->
<!DOCTYPE svg PUBLIC "-//W3C//DTD SVG 1.1//EN" "http://www.w3.org/Graphics/SVG/1.1/DTD/svg11.dtd">
<svg version="1.1" id="Layer_1" xmlns="http://www.w3.org/2000/svg" xmlns:xlink="http://www.w3.org/1999/xlink" x="0px" y="0px"
	 width="95.949px" height="113.118px" viewBox="0 0 95.949 113.118" enable-background="new 0 0 95.949 113.118"
	 xml:space="preserve">
<g>
	<defs>
		<rect id="SVGID_1_" width="95.949" height="113.118"/>
	</defs>
	<clipPath id="SVGID_2_">
		<use xlink:href="#SVGID_1_"  overflow="visible"/>
	</clipPath>
	<path clip-path="url(#SVGID_2_)" fill="#669AC1" d="M75.907,42.094c-0.872-1.357-2.379-2.139-4.03-2.118h-0.001
		c-0.88,0.029-1.73,0.306-2.434,0.788L36.59,62.609l-9.3-9.272c-0.826-0.885-1.944-1.401-3.154-1.458
		c-1.235-0.07-2.41,0.367-3.321,1.197c-1.88,1.713-2.015,4.636-0.3,6.519c0.085,0.093,0.174,0.182,0.267,0.268l11.965,11.932
		c0.888,0.888,2.071,1.346,3.263,1.345c0.884,0,1.773-0.252,2.547-0.768l35.961-23.907c1.036-0.665,1.752-1.694,2.014-2.897
		C76.795,44.364,76.573,43.13,75.907,42.094"/>
	
		<path clip-path="url(#SVGID_2_)" fill="none" stroke="#669AC1" stroke-width="7.087" stroke-linecap="square" stroke-linejoin="bevel" stroke-miterlimit="10" d="
		M48.299,3.564c-0.825,0-1.59,0.429-2.044,1.113c-10.951,9.049-24.803,12.068-35.786,12.236c-1.186,0-2.211,0.819-2.452,1.973
		c0,0-2.486,11.181-3.732,24.706C3.04,57.118,2.783,72.956,8.25,83.182C12.346,90.843,22.035,97,30.687,101.687
		c8.002,4.335,14.601,6.958,15.639,7.367c0.471,0.362,1.055,0.546,1.65,0.517c0.602,0.034,1.195-0.159,1.668-0.53h0.012
		c1.081-0.425,7.647-3.029,15.62-7.348c8.65-4.686,18.328-10.844,22.423-18.504c5.468-10.226,5.211-26.065,3.965-39.59
		c-1.245-13.525-3.732-24.707-3.732-24.707c-0.245-1.177-1.306-2.009-2.516-1.973c-0.069-0.003-0.138-0.003-0.207,0
		C69.401,16.856,55.515,11.56,50.67,5.167c-0.364-0.986-1.316-1.637-2.374-1.623L48.299,3.564z"/>
</g>
</svg>
