<?xml version="1.0" encoding="utf-8"?>
<!-- Generator: Adobe Illustrator 17.0.0, SVG Export Plug-In . SVG Version: 6.00 Build 0)  -->
<!DOCTYPE svg PUBLIC "-//W3C//DTD SVG 1.1//EN" "http://www.w3.org/Graphics/SVG/1.1/DTD/svg11.dtd">
<svg version="1.1" id="Layer_1" xmlns="http://www.w3.org/2000/svg" xmlns:xlink="http://www.w3.org/1999/xlink" x="0px" y="0px"
	 width="105.842px" height="114.077px" viewBox="0 0 105.842 114.077" enable-background="new 0 0 105.842 114.077"
	 xml:space="preserve">
<g>
	<defs>
		<rect id="SVGID_1_" y="0" width="105.842" height="114.077"/>
	</defs>
	<clipPath id="SVGID_2_">
		<use xlink:href="#SVGID_1_"  overflow="visible"/>
	</clipPath>
	
		<path clip-path="url(#SVGID_2_)" fill="none" stroke="#669AC1" stroke-width="7.087" stroke-linecap="round" stroke-linejoin="round" stroke-miterlimit="10" d="
		M87.836,26.241C79.553,17.958,68.844,12.99,57.312,11.98h-8.783c-11.532,1.01-22.241,5.978-30.524,14.261
		C8.679,35.568,3.543,47.967,3.543,61.156s5.136,25.59,14.463,34.915c9.327,9.326,21.726,14.463,34.915,14.463
		s25.59-5.137,34.915-14.463c9.325-9.325,14.462-21.726,14.462-34.915S97.163,35.568,87.836,26.241z"/>
	<path clip-path="url(#SVGID_2_)" fill="#669AC1" d="M48.363,57.344c-1.794,2.065-2.005,4.947-0.773,7.218l-3.295,3.794
		c-0.807,0.929-0.708,2.337,0.221,3.144c0.929,0.807,2.337,0.708,3.144-0.221l3.295-3.794c2.421,0.903,5.245,0.29,7.039-1.775
		c1.794-2.065,2.006-4.947,0.773-7.218L77.331,37.12c0.807-0.929,0.708-2.337-0.221-3.144c-0.929-0.807-2.337-0.708-3.144,0.221
		L55.402,55.569C52.981,54.666,50.157,55.279,48.363,57.344"/>
	<path clip-path="url(#SVGID_2_)" fill="#669AC1" d="M99.775,17.007l-6.909-6.909c-0.977-0.977-2.562-0.977-3.539,0l-2.614,2.613
		c-0.977,0.978-0.977,2.562,0,3.54l6.909,6.909c0.978,0.977,2.562,0.977,3.539,0l2.614-2.614
		C100.752,19.569,100.752,17.984,99.775,17.007"/>
	<path clip-path="url(#SVGID_2_)" fill="#669AC1" d="M59.756,11.98h-13.67c-1.517,0-2.746-1.229-2.746-2.745v-6.49
		C43.34,1.229,44.569,0,46.086,0h13.67c1.516,0,2.745,1.229,2.745,2.745v6.49C62.501,10.751,61.272,11.98,59.756,11.98"/>
</g>
</svg>
